<mxfile host="drawio-plugin" modified="2022-12-18T08:38:56.805Z" agent="5.0 (Macintosh; Intel Mac OS X 10_15_7) AppleWebKit/537.36 (KHTML, like Gecko) Chrome/97.0.4692.45 Safari/537.36" version="20.5.3" etag="gA19SKJEkSJG8z51hWgH" type="embed"><diagram id="-AHOSzDh5g6UVdMAEVKT" name="Page-1"><mxGraphModel dx="1234" dy="853" grid="1" gridSize="10" guides="1" tooltips="1" connect="1" arrows="1" fold="1" page="1" pageScale="1" pageWidth="850" pageHeight="1100" math="0" shadow="0"><root><mxCell id="0"/><mxCell id="1" parent="0"/><mxCell id="79" value="" style="shape=ext;double=1;rounded=0;whiteSpace=wrap;html=1;shadow=0;glass=0;fontSize=9;strokeColor=default;strokeWidth=1;" parent="1" vertex="1"><mxGeometry x="1150" y="20" width="400" height="420" as="geometry"/></mxCell><mxCell id="88" value="" style="shape=ext;double=1;rounded=0;whiteSpace=wrap;html=1;shadow=0;glass=0;fontSize=9;strokeColor=default;strokeWidth=1;" parent="1" vertex="1"><mxGeometry x="1190" y="190.5" width="190" height="219.5" as="geometry"/></mxCell><mxCell id="17" value="" style="edgeStyle=none;html=1;endArrow=ERmany;endFill=0;" parent="1" source="4" target="12" edge="1"><mxGeometry relative="1" as="geometry"/></mxCell><mxCell id="34" value="" style="edgeStyle=none;html=1;endArrow=block;endFill=1;" parent="1" source="4" target="29" edge="1"><mxGeometry relative="1" as="geometry"/></mxCell><mxCell id="4" value="contract CryptoPunksGroupRegistry" style="swimlane;fontStyle=0;childLayout=stackLayout;horizontal=1;startSize=26;fillColor=none;horizontalStack=0;resizeParent=1;resizeParentMax=0;resizeLast=0;collapsible=1;marginBottom=0;strokeWidth=3;" parent="1" vertex="1"><mxGeometry x="90" y="241" width="320" height="182" as="geometry"/></mxCell><mxCell id="7" value="mapping(uint192 =&gt; Group) private groups" style="text;strokeColor=none;fillColor=none;align=left;verticalAlign=top;spacingLeft=4;spacingRight=4;overflow=hidden;rotatable=0;points=[[0,0.5],[1,0.5]];portConstraint=eastwest;" parent="4" vertex="1"><mxGeometry y="26" width="320" height="26" as="geometry"/></mxCell><mxCell id="9" value="  " style="text;strokeColor=none;fillColor=none;align=left;verticalAlign=top;spacingLeft=4;spacingRight=4;overflow=hidden;rotatable=0;points=[[0,0.5],[1,0.5]];portConstraint=eastwest;" parent="4" vertex="1"><mxGeometry y="52" width="320" height="26" as="geometry"/></mxCell><mxCell id="5" value="create(uint256 targetPunkId, uint256 targetMaxPrice)" style="text;strokeColor=none;fillColor=none;align=left;verticalAlign=top;spacingLeft=4;spacingRight=4;overflow=hidden;rotatable=0;points=[[0,0.5],[1,0.5]];portConstraint=eastwest;" parent="4" vertex="1"><mxGeometry y="78" width="320" height="26" as="geometry"/></mxCell><mxCell id="6" value="contribute(uint192 groupId, uint64 ticketQuantity)" style="text;strokeColor=none;fillColor=none;align=left;verticalAlign=top;spacingLeft=4;spacingRight=4;overflow=hidden;rotatable=0;points=[[0,0.5],[1,0.5]];portConstraint=eastwest;" parent="4" vertex="1"><mxGeometry y="104" width="320" height="26" as="geometry"/></mxCell><mxCell id="91" value="buy(uint192 groupId)" style="text;strokeColor=none;fillColor=none;align=left;verticalAlign=top;spacingLeft=4;spacingRight=4;overflow=hidden;rotatable=0;points=[[0,0.5],[1,0.5]];portConstraint=eastwest;" parent="4" vertex="1"><mxGeometry y="130" width="320" height="26" as="geometry"/></mxCell><mxCell id="92" value="claim(uint192 groupId, string calldata metadataUri)" style="text;strokeColor=none;fillColor=none;align=left;verticalAlign=top;spacingLeft=4;spacingRight=4;overflow=hidden;rotatable=0;points=[[0,0.5],[1,0.5]];portConstraint=eastwest;" parent="4" vertex="1"><mxGeometry y="156" width="320" height="26" as="geometry"/></mxCell><mxCell id="12" value="Group" style="swimlane;fontStyle=2;childLayout=stackLayout;horizontal=1;startSize=26;fillColor=none;horizontalStack=0;resizeParent=1;resizeParentMax=0;resizeLast=0;collapsible=1;marginBottom=0;strokeWidth=3;" parent="1" vertex="1"><mxGeometry x="90" y="671" width="320" height="338" as="geometry"/></mxCell><mxCell id="13" value="uint192 id" style="text;strokeColor=none;fillColor=none;align=left;verticalAlign=top;spacingLeft=4;spacingRight=4;overflow=hidden;rotatable=0;points=[[0,0.5],[1,0.5]];portConstraint=eastwest;" parent="12" vertex="1"><mxGeometry y="26" width="320" height="26" as="geometry"/></mxCell><mxCell id="18" value="address creator" style="text;strokeColor=none;fillColor=none;align=left;verticalAlign=top;spacingLeft=4;spacingRight=4;overflow=hidden;rotatable=0;points=[[0,0.5],[1,0.5]];portConstraint=eastwest;" parent="12" vertex="1"><mxGeometry y="52" width="320" height="26" as="geometry"/></mxCell><mxCell id="25" value="GroupStatus status" style="text;strokeColor=none;fillColor=none;align=left;verticalAlign=top;spacingLeft=4;spacingRight=4;overflow=hidden;rotatable=0;points=[[0,0.5],[1,0.5]];portConstraint=eastwest;" parent="12" vertex="1"><mxGeometry y="78" width="320" height="26" as="geometry"/></mxCell><mxCell id="19" value="uint256 targetPunkIndex" style="text;strokeColor=none;fillColor=none;align=left;verticalAlign=top;spacingLeft=4;spacingRight=4;overflow=hidden;rotatable=0;points=[[0,0.5],[1,0.5]];portConstraint=eastwest;" parent="12" vertex="1"><mxGeometry y="104" width="320" height="26" as="geometry"/></mxCell><mxCell id="20" value="uint256 targetMaxPrice" style="text;strokeColor=none;fillColor=none;align=left;verticalAlign=top;spacingLeft=4;spacingRight=4;overflow=hidden;rotatable=0;points=[[0,0.5],[1,0.5]];portConstraint=eastwest;" parent="12" vertex="1"><mxGeometry y="130" width="320" height="26" as="geometry"/></mxCell><mxCell id="21" value="uint64 totalTicketSupply" style="text;strokeColor=none;fillColor=none;align=left;verticalAlign=top;spacingLeft=4;spacingRight=4;overflow=hidden;rotatable=0;points=[[0,0.5],[1,0.5]];portConstraint=eastwest;" parent="12" vertex="1"><mxGeometry y="156" width="320" height="26" as="geometry"/></mxCell><mxCell id="22" value="uint256 totalContribution   " style="text;strokeColor=none;fillColor=none;align=left;verticalAlign=top;spacingLeft=4;spacingRight=4;overflow=hidden;rotatable=0;points=[[0,0.5],[1,0.5]];portConstraint=eastwest;" parent="12" vertex="1"><mxGeometry y="182" width="320" height="26" as="geometry"/></mxCell><mxCell id="23" value="uint64 ticketsBought" style="text;strokeColor=none;fillColor=none;align=left;verticalAlign=top;spacingLeft=4;spacingRight=4;overflow=hidden;rotatable=0;points=[[0,0.5],[1,0.5]];portConstraint=eastwest;" parent="12" vertex="1"><mxGeometry y="208" width="320" height="26" as="geometry"/></mxCell><mxCell id="24" value="uint40 expiry" style="text;strokeColor=none;fillColor=none;align=left;verticalAlign=top;spacingLeft=4;spacingRight=4;overflow=hidden;rotatable=0;points=[[0,0.5],[1,0.5]];portConstraint=eastwest;" parent="12" vertex="1"><mxGeometry y="234" width="320" height="26" as="geometry"/></mxCell><mxCell id="27" value="    " style="text;strokeColor=none;fillColor=none;align=left;verticalAlign=top;spacingLeft=4;spacingRight=4;overflow=hidden;rotatable=0;points=[[0,0.5],[1,0.5]];portConstraint=eastwest;" parent="12" vertex="1"><mxGeometry y="260" width="320" height="26" as="geometry"/></mxCell><mxCell id="26" value="address mosaicRegistry (?)" style="text;strokeColor=none;fillColor=none;align=left;verticalAlign=top;spacingLeft=4;spacingRight=4;overflow=hidden;rotatable=0;points=[[0,0.5],[1,0.5]];portConstraint=eastwest;fontColor=#FF1414;" parent="12" vertex="1"><mxGeometry y="286" width="320" height="26" as="geometry"/></mxCell><mxCell id="28" value="uint192 mosaicId" style="text;strokeColor=none;fillColor=none;align=left;verticalAlign=top;spacingLeft=4;spacingRight=4;overflow=hidden;rotatable=0;points=[[0,0.5],[1,0.5]];portConstraint=eastwest;" parent="12" vertex="1"><mxGeometry y="312" width="320" height="26" as="geometry"/></mxCell><mxCell id="64" style="edgeStyle=none;html=1;startArrow=ERone;startFill=0;endArrow=block;endFill=1;exitX=1;exitY=0.5;exitDx=0;exitDy=0;entryX=0;entryY=0.5;entryDx=0;entryDy=0;" parent="1" source="91" target="39" edge="1"><mxGeometry relative="1" as="geometry"><mxPoint x="580" y="104" as="targetPoint"/></mxGeometry></mxCell><mxCell id="65" value="1 Group transformed to 1 Exhibit" style="edgeLabel;html=1;align=center;verticalAlign=middle;resizable=0;points=[];" parent="64" vertex="1" connectable="0"><mxGeometry x="-0.4316" y="3" relative="1" as="geometry"><mxPoint x="43" y="-15" as="offset"/></mxGeometry></mxCell><mxCell id="29" value="ERC1155 Ticket" style="swimlane;fontStyle=0;childLayout=stackLayout;horizontal=1;startSize=26;fillColor=none;horizontalStack=0;resizeParent=1;resizeParentMax=0;resizeLast=0;collapsible=1;marginBottom=0;strokeWidth=3;" parent="1" vertex="1"><mxGeometry x="90" y="91" width="320" height="52" as="geometry"/></mxCell><mxCell id="30" value="uint192 groupId cast to uint256 tokenId =&gt; balance" style="text;strokeColor=none;fillColor=none;align=left;verticalAlign=top;spacingLeft=4;spacingRight=4;overflow=hidden;rotatable=0;points=[[0,0.5],[1,0.5]];portConstraint=eastwest;" parent="29" vertex="1"><mxGeometry y="26" width="320" height="26" as="geometry"/></mxCell><mxCell id="56" style="edgeStyle=none;html=1;entryX=0.5;entryY=0;entryDx=0;entryDy=0;endArrow=ERmany;endFill=0;" parent="1" source="36" target="42" edge="1"><mxGeometry relative="1" as="geometry"/></mxCell><mxCell id="62" style="edgeStyle=none;html=1;entryX=0.5;entryY=1;entryDx=0;entryDy=0;startArrow=baseDash;startFill=0;endArrow=block;endFill=1;" parent="1" source="36" target="60" edge="1"><mxGeometry relative="1" as="geometry"/></mxCell><mxCell id="36" value="contract CryptoPunksMosaicRegistry" style="swimlane;fontStyle=0;childLayout=stackLayout;horizontal=1;startSize=26;fillColor=none;horizontalStack=0;resizeParent=1;resizeParentMax=0;resizeLast=0;collapsible=1;marginBottom=0;strokeWidth=3;" parent="1" vertex="1"><mxGeometry x="615" y="241" width="440" height="130" as="geometry"/></mxCell><mxCell id="37" value="mapping(uint256 =&gt; string) private metadata" style="text;strokeColor=none;fillColor=none;align=left;verticalAlign=top;spacingLeft=4;spacingRight=4;overflow=hidden;rotatable=0;points=[[0,0.5],[1,0.5]];portConstraint=eastwest;fontColor=#FF66B3;" parent="36" vertex="1"><mxGeometry y="26" width="440" height="26" as="geometry"/></mxCell><mxCell id="38" value="  " style="text;strokeColor=none;fillColor=none;align=left;verticalAlign=top;spacingLeft=4;spacingRight=4;overflow=hidden;rotatable=0;points=[[0,0.5],[1,0.5]];portConstraint=eastwest;" parent="36" vertex="1"><mxGeometry y="52" width="440" height="26" as="geometry"/></mxCell><mxCell id="39" value="create(uint256 targetPunkId, uint64 totalClaimableCount)" style="text;strokeColor=none;fillColor=none;align=left;verticalAlign=top;spacingLeft=4;spacingRight=4;overflow=hidden;rotatable=0;points=[[0,0.5],[1,0.5]];portConstraint=eastwest;fontColor=#FF2424;" parent="36" vertex="1"><mxGeometry y="78" width="440" height="26" as="geometry"/></mxCell><mxCell id="40" value="mint(address contributor, uint192 mosaicId, string calldata tokenUri)" style="text;strokeColor=none;fillColor=none;align=left;verticalAlign=top;spacingLeft=4;spacingRight=4;overflow=hidden;rotatable=0;points=[[0,0.5],[1,0.5]];portConstraint=eastwest;" parent="36" vertex="1"><mxGeometry y="104" width="440" height="26" as="geometry"/></mxCell><mxCell id="42" value="Mosaic" style="swimlane;fontStyle=2;childLayout=stackLayout;horizontal=1;startSize=26;fillColor=none;horizontalStack=0;resizeParent=1;resizeParentMax=0;resizeLast=0;collapsible=1;marginBottom=0;strokeWidth=3;" parent="1" vertex="1"><mxGeometry x="675" y="671" width="320" height="130" as="geometry"/></mxCell><mxCell id="43" value="uint192 originalId (Original)" style="text;strokeColor=none;fillColor=none;align=left;verticalAlign=top;spacingLeft=4;spacingRight=4;overflow=hidden;rotatable=0;points=[[0,0.5],[1,0.5]];portConstraint=eastwest;" parent="42" vertex="1"><mxGeometry y="26" width="320" height="26" as="geometry"/></mxCell><mxCell id="44" value="uint64 monoId (Mono)" style="text;strokeColor=none;fillColor=none;align=left;verticalAlign=top;spacingLeft=4;spacingRight=4;overflow=hidden;rotatable=0;points=[[0,0.5],[1,0.5]];portConstraint=eastwest;" parent="42" vertex="1"><mxGeometry y="52" width="320" height="26" as="geometry"/></mxCell><mxCell id="57" value="    " style="text;strokeColor=none;fillColor=none;align=left;verticalAlign=top;spacingLeft=4;spacingRight=4;overflow=hidden;rotatable=0;points=[[0,0.5],[1,0.5]];portConstraint=eastwest;" parent="42" vertex="1"><mxGeometry y="78" width="320" height="26" as="geometry"/></mxCell><mxCell id="52" value="mapping(uint256 =&gt; string) metadata" style="text;strokeColor=none;fillColor=none;align=left;verticalAlign=top;spacingLeft=4;spacingRight=4;overflow=hidden;rotatable=0;points=[[0,0.5],[1,0.5]];portConstraint=eastwest;" parent="42" vertex="1"><mxGeometry y="104" width="320" height="26" as="geometry"/></mxCell><mxCell id="58" style="edgeStyle=none;html=1;entryX=1.006;entryY=0.044;entryDx=0;entryDy=0;entryPerimeter=0;endArrow=ERone;endFill=0;startArrow=ERzeroToOne;startFill=0;exitX=0;exitY=0.115;exitDx=0;exitDy=0;exitPerimeter=0;" parent="1" source="42" target="12" edge="1"><mxGeometry relative="1" as="geometry"><mxPoint x="620" y="606" as="sourcePoint"/></mxGeometry></mxCell><mxCell id="59" value="split ID (192 bits for original, 64 bits for monos)" style="text;html=1;align=center;verticalAlign=middle;resizable=0;points=[];autosize=1;strokeColor=none;fillColor=none;" parent="1" vertex="1"><mxGeometry x="675" y="646" width="270" height="30" as="geometry"/></mxCell><mxCell id="60" value="ERC1155 CryptoPunksMosaic" style="swimlane;fontStyle=0;childLayout=stackLayout;horizontal=1;startSize=26;fillColor=none;horizontalStack=0;resizeParent=1;resizeParentMax=0;resizeLast=0;collapsible=1;marginBottom=0;strokeWidth=3;" parent="1" vertex="1"><mxGeometry x="647.5" y="91" width="375" height="52" as="geometry"/></mxCell><mxCell id="61" value="(uint192 originalId + uint64 monoId) =&gt; uint256 tokenId =&gt; balance" style="text;strokeColor=none;fillColor=none;align=left;verticalAlign=top;spacingLeft=4;spacingRight=4;overflow=hidden;rotatable=0;points=[[0,0.5],[1,0.5]];portConstraint=eastwest;" parent="60" vertex="1"><mxGeometry y="26" width="375" height="26" as="geometry"/></mxCell><mxCell id="69" value="" style="edgeStyle=none;html=1;startArrow=ERone;startFill=0;endArrow=ERone;endFill=0;" parent="1" source="66" edge="1"><mxGeometry relative="1" as="geometry"><mxPoint x="1288" y="190" as="targetPoint"/></mxGeometry></mxCell><mxCell id="72" value="&lt;font style=&quot;font-size: 9px;&quot;&gt;purchased/secured by GroupRegistry&lt;/font&gt;" style="edgeLabel;html=1;align=center;verticalAlign=middle;resizable=0;points=[];fontSize=9;" parent="69" vertex="1" connectable="0"><mxGeometry x="0.4027" relative="1" as="geometry"><mxPoint y="-10" as="offset"/></mxGeometry></mxCell><mxCell id="66" value="Original&lt;br&gt;(each CryptoPunk NFT)" style="rounded=1;whiteSpace=wrap;html=1;strokeWidth=2;fillWeight=4;hachureGap=8;hachureAngle=45;sketch=1;glass=0;" parent="1" vertex="1"><mxGeometry x="1220" y="73" width="135" height="70" as="geometry"/></mxCell><mxCell id="71" value="" style="edgeStyle=none;html=1;startArrow=ERone;startFill=0;endArrow=ERoneToMany;endFill=0;" parent="1" source="68" target="70" edge="1"><mxGeometry relative="1" as="geometry"/></mxCell><mxCell id="73" value="secured by ExhibitRegistry" style="edgeLabel;html=1;align=center;verticalAlign=middle;resizable=0;points=[];fontSize=9;" parent="71" vertex="1" connectable="0"><mxGeometry x="0.0225" y="1" relative="1" as="geometry"><mxPoint y="-1" as="offset"/></mxGeometry></mxCell><mxCell id="68" value="&quot;Original&quot;&lt;br&gt;&lt;font style=&quot;font-size: 9px&quot;&gt;original in Exhibit vault&lt;/font&gt;" style="ellipse;whiteSpace=wrap;html=1;rounded=1;strokeWidth=2;fillWeight=4;hachureGap=8;hachureAngle=45;sketch=1;shadow=0;" parent="1" vertex="1"><mxGeometry x="1227.5" y="217" width="120" height="60" as="geometry"/></mxCell><mxCell id="70" value="&quot;Mono&quot;&lt;br&gt;&lt;font style=&quot;font-size: 9px&quot;&gt;NFTs deriving from Oeuvre&lt;/font&gt;" style="shape=document;whiteSpace=wrap;html=1;boundedLbl=1;rounded=1;strokeWidth=2;fillWeight=4;hachureGap=8;hachureAngle=45;sketch=1;size=0.1694915254237288;" parent="1" vertex="1"><mxGeometry x="1220" y="330" width="132.5" height="59" as="geometry"/></mxCell><mxCell id="76" style="edgeStyle=none;html=1;fontSize=9;startArrow=ERone;startFill=0;endArrow=ERoneToMany;endFill=0;" parent="1" source="75" edge="1"><mxGeometry relative="1" as="geometry"><mxPoint x="1380" y="247" as="targetPoint"/></mxGeometry></mxCell><mxCell id="75" value="Mosaic Protocol" style="ellipse;whiteSpace=wrap;html=1;strokeWidth=2;fillWeight=2;hachureGap=8;fillStyle=dots;sketch=1;shadow=0;glass=0;fontSize=9;" parent="1" vertex="1"><mxGeometry x="1410" y="190.5" width="120" height="113" as="geometry"/></mxCell><mxCell id="78" style="edgeStyle=none;html=1;fontSize=9;startArrow=ERone;startFill=0;endArrow=ERoneToMany;endFill=0;" parent="1" source="77" edge="1"><mxGeometry relative="1" as="geometry"><mxPoint x="1360" y="104.49999999999989" as="targetPoint"/></mxGeometry></mxCell><mxCell id="77" value="CryptoPunksMarket" style="ellipse;whiteSpace=wrap;html=1;strokeWidth=2;fillWeight=2;hachureGap=8;fillStyle=dots;sketch=1;shadow=0;glass=0;fontSize=9;" parent="1" vertex="1"><mxGeometry x="1410" y="48" width="120" height="113" as="geometry"/></mxCell><mxCell id="80" value="uint192 originalId" style="shape=ext;double=1;rounded=0;whiteSpace=wrap;html=1;shadow=0;glass=0;fontSize=9;fontColor=default;strokeColor=default;strokeWidth=1;fillColor=none;" parent="1" vertex="1"><mxGeometry x="1150" y="680" width="205" height="40" as="geometry"/></mxCell><mxCell id="81" value="uint64 monoId" style="shape=ext;double=1;rounded=0;whiteSpace=wrap;html=1;shadow=0;glass=0;fontSize=9;fontColor=default;strokeColor=default;strokeWidth=1;fillColor=none;" parent="1" vertex="1"><mxGeometry x="1355" y="680" width="110" height="40" as="geometry"/></mxCell><mxCell id="82" value="0 =&amp;gt; Original itself (base)&lt;br style=&quot;font-size: 8px;&quot;&gt;1... =&amp;gt; Mono" style="text;html=1;align=left;verticalAlign=middle;resizable=0;points=[];autosize=1;strokeColor=none;fillColor=none;fontSize=8;fontColor=default;" parent="1" vertex="1"><mxGeometry x="1355" y="720" width="110" height="30" as="geometry"/></mxCell><mxCell id="83" value="ERC-1155 Token: MOSAIC" style="text;html=1;align=left;verticalAlign=middle;resizable=0;points=[];autosize=1;strokeColor=none;fillColor=none;fontSize=11;fontColor=default;fontStyle=1" parent="1" vertex="1"><mxGeometry x="1150" y="655" width="160" height="30" as="geometry"/></mxCell><mxCell id="84" value="uint192 ticketGroupId" style="shape=ext;double=1;rounded=0;whiteSpace=wrap;html=1;shadow=0;glass=0;fontSize=9;fontColor=default;strokeColor=default;strokeWidth=1;fillColor=none;" parent="1" vertex="1"><mxGeometry x="1255" y="570" width="210" height="40" as="geometry"/></mxCell><mxCell id="87" value="ERC-1155 Token: TICKET" style="text;html=1;align=left;verticalAlign=middle;resizable=0;points=[];autosize=1;strokeColor=none;fillColor=none;fontSize=11;fontColor=default;fontStyle=1" parent="1" vertex="1"><mxGeometry x="1150" y="545" width="160" height="30" as="geometry"/></mxCell><mxCell id="89" value="&quot;Mosaic&quot;" style="text;html=1;align=center;verticalAlign=middle;resizable=0;points=[];autosize=1;strokeColor=none;fillColor=none;fontSize=11;fontColor=default;fontStyle=1" parent="1" vertex="1"><mxGeometry x="1190" y="192" width="70" height="30" as="geometry"/></mxCell><mxCell id="90" value="(unused)" style="shape=ext;double=1;rounded=0;whiteSpace=wrap;html=1;shadow=0;glass=0;fontSize=9;fontColor=default;strokeColor=default;strokeWidth=1;fillColor=none;" parent="1" vertex="1"><mxGeometry x="1150" y="570" width="105" height="40" as="geometry"/></mxCell><mxCell id="93" style="edgeStyle=none;html=1;startArrow=ERone;startFill=0;endArrow=block;endFill=1;exitX=1;exitY=0.5;exitDx=0;exitDy=0;entryX=0;entryY=0.5;entryDx=0;entryDy=0;" parent="1" target="40" edge="1"><mxGeometry relative="1" as="geometry"><mxPoint x="410" y="410" as="sourcePoint"/><mxPoint x="615" y="358" as="targetPoint"/></mxGeometry></mxCell><mxCell id="94" value="1 Ticket exchanged for 1 Mono" style="edgeLabel;html=1;align=center;verticalAlign=middle;resizable=0;points=[];" parent="93" vertex="1" connectable="0"><mxGeometry x="-0.4316" y="3" relative="1" as="geometry"><mxPoint x="43" y="-8" as="offset"/></mxGeometry></mxCell><mxCell id="95" value="TODO: share -&amp;gt; contribution" style="text;html=1;align=center;verticalAlign=middle;resizable=0;points=[];autosize=1;strokeColor=none;fillColor=none;fontColor=#FF66B3;" vertex="1" parent="1"><mxGeometry x="850" y="979" width="170" height="30" as="geometry"/></mxCell><mxCell id="96" value="&lt;font color=&quot;#000000&quot; style=&quot;font-size: 8px;&quot;&gt;(the collection of Mosaics = exhibit)&lt;/font&gt;" style="text;html=1;align=center;verticalAlign=middle;resizable=0;points=[];autosize=1;strokeColor=none;fillColor=none;fontColor=#FF1414;fontSize=8;" vertex="1" parent="1"><mxGeometry x="1240" y="410" width="150" height="20" as="geometry"/></mxCell></root></mxGraphModel></diagram></mxfile>